:FULLY-SPECIFIED
:FORCE-ALL-JOINTS-BE-3DOF
:DEGREES
2344
root 0.676706 14.0754 -18.4184 -161.56 -58.0949 168.497
lfemur -4.36565 -5.32701 1.00096
ltibia 33.8813 -0 0
lfoot -11.275 26.7519 -0.0162006
ltoes -45.3952 0 0
rfemur -67.9701 -12.0556 12.3001
rtibia 78.8748 -0 0
rfoot -10.7421 -17.8104 0.0951186
rtoes 5.76121 -0 0
lowerback 19.9983 3.39476 -3.25822
upperback 0.385931 3.5459 -0.629834
thorax -11.0033 1.75652 0.145953
lowerneck -5.32347 -2.51131 -4.95166
upperneck 2.63014 -3.03148 0.134797
head 1.94905 -1.54111 0.891175
lclavicle -2.66371e-14 3.18055e-15 0
lhumerus -37.0638 -21.1209 88.3353
lradius 101.25 -0 0
lwrist 48.527 0 0
lhand -24.4533 43.0466 -0.0209865
lfingers 7.12502 -0 0
lthumb 2.04038 72.974 -0.0148548
rclavicle -2.66371e-14 3.18055e-15 0
rhumerus 48.9808 13.5567 -46.6672
rradius 48.2685 -0 0
rwrist 6.31115 0 0
rhand -6.56441 -37.9002 -0.0455602
rfingers 7.12502 -0 0
rthumb 19.2894 -66.9665 -0.0420343
2345
root 0.670473 14.1003 -18.5749 -160.29 -61.1899 167.372
lfemur -5.57527 -4.93155 0.701102
ltibia 35.3181 -0 0
lfoot -10.9782 26.5874 -0.0225849
ltoes -44.6343 0 0
rfemur -67.4806 -11.4931 12.4441
rtibia 78.7542 -0 0
rfoot -11.0062 -18.2893 0.110854
rtoes 5.5165 -0 0
lowerback 20.0292 3.33922 -3.04404
upperback 0.362809 3.53066 -0.583035
thorax -11.0384 1.74015 0.0788041
lowerneck -5.39333 -2.08428 -4.6241
upperneck 2.79707 -2.4629 -0.26755
head 2.00756 -1.26086 0.742714
lclavicle -2.66371e-14 3.18055e-15 0
lhumerus -34.7935 -22.3664 87.9767
lradius 101.572 -0 0
lwrist 46.2991 0 0
lhand -24.8839 42.9722 -0.0231361
lfingers 7.12502 -0 0
lthumb 1.62475 72.8945 -0.0160018
rclavicle -2.66371e-14 3.18055e-15 0
rhumerus 48.1199 14.9489 -46.5922
rradius 49.5155 -0 0
rwrist 5.69066 0 0
rhand -6.28736 -37.9385 -0.0522357
rfingers 7.12502 -0 0
rthumb 19.5556 -66.9774 -0.0479698
2346
root 0.664239 14.1253 -18.7313 -158.665 -64.4024 165.89
lfemur -6.83238 -4.51661 0.354503
ltibia 36.8345 -0 0
lfoot -10.674 26.4256 -0.0296515
ltoes -43.8271 0 0
rfemur -66.9694 -10.9075 12.5975
rtibia 78.6234 -0 0
rfoot -11.2857 -18.761 0.125743
rtoes 5.25636 -0 0
lowerback 20.0492 3.2805 -2.82939
upperback 0.334867 3.51209 -0.534818
thorax -11.0726 1.72232 0.014011
lowerneck -5.45956 -1.63998 -4.28296
upperneck 2.97403 -1.8709 -0.683038
head 2.07051 -0.969679 0.588634
lclavicle -2.66371e-14 3.18055e-15 0
lhumerus -32.3899 -23.6798 87.5532
lradius 101.915 -0 0
lwrist 43.9484 0 0
lhand -25.3281 42.9031 -0.024953
lfingers 7.12502 -0 0
lthumb 1.19591 72.8198 -0.0168538
rclavicle -2.66371e-14 3.18055e-15 0
rhumerus 47.195 16.3998 -46.5479
rradius 50.798 -0 0
rwrist 5.06809 0 0
rhand -6.00743 -37.9843 -0.0584799
rfingers 7.12502 -0 0
rthumb 19.8246 -66.995 -0.0534868
2347
root 0.658006 14.1502 -18.8878 -156.513 -67.7143 163.88
lfemur -8.13377 -4.08573 -0.0373286
ltibia 38.4242 -0 0
lfoot -10.3633 26.2662 -0.0372729
ltoes -42.9773 0 0
rfemur -66.4379 -10.3015 12.7605
rtibia 78.4836 -0 0
rfoot -11.5791 -19.2251 0.139554
rtoes 4.98175 -0 0
lowerback 20.059 3.21894 -2.61459
upperback 0.302398 3.49047 -0.485314
thorax -11.1058 1.70317 -0.0484664
lowerneck -5.52165 -1.18035 -3.92978
upperneck 3.15943 -1.25789 -1.1096
head 2.13743 -0.668815 0.429685
lclavicle -2.66371e-14 3.18055e-15 0
lhumerus -29.8546 -25.0504 87.0554
lradius 102.278 -0 0
lwrist 41.4854 0 0
lhand -25.7845 42.8392 -0.0264463
lfingers 7.12502 -0 0
lthumb 0.755225 72.7496 -0.0174316
rclavicle -2.66371e-14 3.18055e-15 0
rhumerus 46.2089 17.904 -46.538
rradius 52.1135 -0 0
rwrist 4.44327 0 0
rhand -5.72536 -38.0371 -0.0642381
rfingers 7.12502 -0 0
rthumb 20.0956 -67.0189 -0.0585484
2348
root 0.651773 14.1751 -19.0443 -153.53 -71.1002 161.039
lfemur -9.47623 -3.64238 -0.472753
ltibia 40.0809 -0 0
lfoot -10.0473 26.1091 -0.045326
ltoes -42.089 0 0
rfemur -65.8873 -9.67764 12.9336
rtibia 78.3358 -0 0
rfoot -11.8851 -19.6811 0.152087
rtoes 4.69363 -0 0
lowerback 20.0589 3.15489 -2.39995
upperback 0.265692 3.46606 -0.434657
thorax -11.1381 1.68284 -0.108669
lowerneck -5.57916 -0.707351 -3.56606
upperneck 3.35174 -0.626288 -1.5452
head 2.20784 -0.359501 0.266612
lclavicle -2.66371e-14 3.18055e-15 0
lhumerus -27.1889 -26.467 86.4736
lradius 102.658 -0 0
lwrist 38.9207 0 0
lhand -26.2519 42.7803 -0.0276226
lfingers 7.12502 -0 0
lthumb 0.30405 72.6836 -0.0177529
rclavicle -2.66371e-14 3.18055e-15 0
rhumerus 45.164 19.4558 -46.5662
rradius 53.4591 -0 0
rwrist 3.81605 0 0
rhand -5.44185 -38.0964 -0.0694609
rfingers 7.12502 -0 0
rthumb 20.368 -67.0487 -0.063121
2349
root 0.64554 14.2001 -19.2007 -149.145 -74.5189 156.794
lfemur -10.8565 -3.19 -0.949994
ltibia 41.7983 -0 0
lfoot -9.72696 25.954 -0.0536919
ltoes -41.166 0 0
rfemur -65.3188 -9.03874 13.1168
rtibia 78.1809 -0 0
rfoot -12.2022 -20.1288 0.163175
rtoes 4.39296 -0 0
lowerback 20.0495 3.08868 -2.18578
upperback 0.225042 3.43913 -0.382978
thorax -11.1694 1.66145 -0.166637
lowerneck -5.63166 -0.222955 -3.19331
upperneck 3.54953 0.0214218 -1.98789
head 2.28128 -0.0429769 0.100155
lclavicle -2.66371e-14 3.18055e-15 0
lhumerus -24.3934 -27.9178 85.7989
lradius 103.054 -0 0
lwrist 36.2649 0 0
lhand -26.7287 42.726 -0.0284866
lfingers 7.12502 -0 0
lthumb -0.156258 72.6218 -0.0178326
rclavicle -2.66371e-14 3.18055e-15 0
rhumerus 44.0623 21.0493 -46.6361
rradius 54.8323 -0 0
rwrist 3.18628 0 0
rhand -5.15761 -38.1619 -0.0741047
rfingers 7.12502 -0 0
rthumb 20.641 -67.084 -0.0671751
2350
root 0.639307 14.225 -19.3572 -142.154 -77.8905 149.942
lfemur -12.2714 -2.73193 -1.46712
ltibia 43.5702 -0 0
lfoot -9.40333 25.8007 -0.0622552
ltoes -40.2123 0 0
rfemur -64.7335 -8.38744 13.3103
rtibia 78.0201 -0 0
rfoot -12.529 -20.5677 0.172683
rtoes 4.08071 -0 0
lowerback 20.0313 3.02066 -1.97239
upperback 0.18074 3.40995 -0.330409
thorax -11.1997 1.63914 -0.222411
lowerneck -5.67878 0.270862 -2.813
upperneck 3.75144 0.682747 -2.43571
head 2.35729 0.279512 -0.0689575
lclavicle -2.66371e-14 3.18055e-15 0
lhumerus -21.4685 -29.3905 85.0225
lradius 103.464 -0 0
lwrist 33.5284 0 0
lhand -27.2135 42.6761 -0.029042
lfingers 7.12502 -0 0
lthumb -0.624342 72.5638 -0.0176841
rclavicle -2.66371e-14 3.18055e-15 0
rhumerus 42.9056 22.6787 -46.7512
rradius 56.2302 -0 0
rwrist 2.5538 0 0
rhand -4.87338 -38.2328 -0.0781318
rfingers 7.12502 -0 0
rthumb 20.914 -67.1245 -0.0706851
2351
root 0.633073 14.2499 -19.5137 -129.802 -81.0259 137.727
lfemur -13.7175 -2.27143 -2.02206
ltibia 45.3902 -0 0
lfoot -9.07747 25.649 -0.0709041
ltoes -39.2318 0 0
rfemur -64.1327 -7.72644 13.5143
rtibia 77.8543 -0 0
rfoot -12.8642 -20.9974 0.180504
rtoes 3.75783 -0 0
lowerback 20.0048 2.95116 -1.7601
upperback 0.13308 3.3788 -0.277083
thorax -11.2289 1.61604 -0.276034
lowerneck -5.72021 0.772116 -2.42661
upperneck 3.95618 1.35516 -2.88681
head 2.43545 0.606718 -0.240001
lclavicle -2.66371e-14 3.18055e-15 0
lhumerus -18.4143 -30.8722 84.1363
lradius 103.885 -0 0
lwrist 30.7218 0 0
lhand -27.705 42.6304 -0.0292924
lfingers 7.12502 -0 0
lthumb -1.09885 72.5096 -0.0173192
rclavicle -2.66371e-14 3.18055e-15 0
rhumerus 41.6955 24.338 -46.9149
rradius 57.6501 -0 0
rwrist 1.91845 0 0
rhand -4.58986 -38.3089 -0.0815111
rfingers 7.12502 -0 0
rthumb 21.1863 -67.1697 -0.0736301
2352
root 0.62684 14.2749 -19.6701 -106.239 -83.4017 114.3
lfemur -15.1916 -1.8116 -2.61256
ltibia 47.2521 -0 0
lfoot -8.75042 25.4987 -0.0795301
ltoes -38.2284 0 0
rfemur -63.5175 -7.05843 13.7288
rtibia 77.6848 -0 0
rfoot -13.2063 -21.4175 0.186564
rtoes 3.42528 -0 0
lowerback 19.9704 2.88049 -1.54922
upperback 0.0823539 3.34593 -0.223132
thorax -11.2572 1.59229 -0.327546
lowerneck -5.75566 1.27881 -2.03559
upperneck 4.16255 2.0361 -3.33934
head 2.51532 0.937389 -0.412262
lclavicle -2.66371e-14 3.18055e-15 0
lhumerus -15.2313 -32.3496 83.1332
lradius 104.316 -0 0
lwrist 27.8556 0 0
lhand -28.2017 42.5886 -0.0292417
lfingers 7.12502 -0 0
lthumb -1.57842 72.4588 -0.0167492
rclavicle -2.66371e-14 3.18055e-15 0
rhumerus 40.433 26.0209 -47.1308
rradius 59.0893 -0 0
rwrist 1.28008 0 0
rhand -4.30777 -38.3896 -0.0842181
rfingers 7.12502 -0 0
rthumb 21.4571 -67.2192 -0.075994
2353
root 0.620607 14.2998 -19.8266 -69.7065 -83.867 77.9025
lfemur -16.6902 -1.35542 -3.23622
ltibia 49.1495 -0 0
lfoot -8.42323 25.3495 -0.0880279
ltoes -37.2059 0 0
rfemur -62.8891 -6.38607 13.9538
rtibia 77.5124 -0 0
rfoot -13.5539 -21.8277 0.190814
rtoes 3.08403 -0 0
lowerback 19.9288 2.80899 -1.34006
upperback 0.0288569 3.31162 -0.16869
thorax -11.2844 1.56801 -0.376989
lowerneck -5.78492 1.78896 -1.64139
upperneck 4.36944 2.72298 -3.79153
head 2.59652 1.27027 -0.585031
lclavicle -2.66371e-14 3.18055e-15 0
lhumerus -11.9205 -33.8094 82.0072
lradius 104.754 -0 0
lwrist 24.9404 0 0
lhand -28.7023 42.5504 -0.0288946
lfingers 7.12502 -0 0
lthumb -2.06169 72.4114 -0.0159852
rclavicle -2.66371e-14 3.18055e-15 0
rhumerus 39.1193 27.7212 -47.4019
rradius 60.5452 -0 0
rwrist 0.638528 0 0
rhand -4.02783 -38.4744 -0.0862357
rfingers 7.12502 -0 0
rthumb 21.7259 -67.2728 -0.0777656
2354
root 0.614374 14.3247 -19.9831 -39.8651 -81.9699 48.1946
lfemur -18.2097 -0.905677 -3.89044
ltibia 51.0762 -0 0
lfoot -8.09695 25.2013 -0.0962951
ltoes -36.1685 0 0
rfemur -62.2488 -5.71203 14.1891
rtibia 77.3382 -0 0
rfoot -13.9056 -22.2275 0.193235
rtoes 2.73503 -0 0
lowerback 19.8803 2.73697 -1.13294
upperback -0.0271167 3.27612 -0.11389
thorax -11.3105 1.54334 -0.424405
lowerneck -5.8078 2.30054 -1.24545
upperneck 4.57581 3.41319 -4.24161
head 2.67865 1.60409 -0.75761
lclavicle -2.66371e-14 3.18055e-15 0
lhumerus -8.48365 -35.2377 80.7538
lradius 105.199 -0 0
lwrist 21.9867 0 0
lhand -29.2053 42.5157 -0.0282579
lfingers 7.12502 -0 0
lthumb -2.54732 72.367 -0.0150385
rclavicle -2.66371e-14 3.18055e-15 0
rhumerus 37.7552 29.4327 -47.7315
rradius 62.015 -0 0
rwrist -0.0063577 0 0
rhand -3.75075 -38.5628 -0.0875538
rfingers 7.12502 -0 0
rthumb 21.9919 -67.33 -0.0789392
2355
root 0.608141 14.3497 -20.1395 -23.7882 -78.7923 32.2498
lfemur -19.7467 -0.46496 -4.5725
ltibia 53.0258 -0 0
lfoot -7.77261 25.0538 -0.104233
ltoes -35.1199 0 0
rfemur -61.5976 -5.03899 14.4345
rtibia 77.1633 -0 0
rfoot -14.26 -22.6166 0.193836
rtoes 2.37925 -0 0
lowerback 19.8255 2.66475 -0.928185
upperback -0.0852716 3.23972 -0.0588674
thorax -11.3356 1.51841 -0.469836
lowerneck -5.8242 2.81156 -0.849208
upperneck 4.78071 4.10406 -4.6879
head 2.76135 1.9376 -0.929307
lclavicle -2.66371e-14 3.18055e-15 0
lhumerus -4.92407 -36.6208 79.3705
lradius 105.646 -0 0
lwrist 19.0051 0 0
lhand -29.7093 42.4842 -0.0273401
lfingers 7.12502 -0 0
lthumb -3.03394 72.3256 -0.0139212
rclavicle -2.66371e-14 3.18055e-15 0
rhumerus 36.3415 31.1488 -48.1225
rradius 63.496 -0 0
rwrist -0.654735 0 0
rhand -3.47726 -38.6544 -0.0881699
rfingers 7.12502 -0 0
rthumb 22.2545 -67.3904 -0.0795142
